<svg width="130" height="41" viewBox="0 0 130 41" fill="none" xmlns="http://www.w3.org/2000/svg">
<path d="M47.888 32.448C46.16 32.448 44.6347 32.1387 43.312 31.52C41.9893 30.9013 40.9547 30.016 40.208 28.864C39.4613 27.712 39.088 26.3253 39.088 24.704V23.808H43.248V24.704C43.248 26.048 43.664 27.0613 44.496 27.744C45.328 28.4053 46.4587 28.736 47.888 28.736C49.3387 28.736 50.416 28.448 51.12 27.872C51.8453 27.296 52.208 26.56 52.208 25.664C52.208 25.0453 52.0267 24.544 51.664 24.16C51.3227 23.776 50.8107 23.4667 50.128 23.232C49.4667 22.976 48.656 22.7413 47.696 22.528L46.96 22.368C45.424 22.0267 44.1013 21.6 42.992 21.088C41.904 20.5547 41.0613 19.8613 40.464 19.008C39.888 18.1547 39.6 17.0453 39.6 15.68C39.6 14.3147 39.92 13.152 40.56 12.192C41.2213 11.2107 42.1387 10.464 43.312 9.952C44.5067 9.41867 45.904 9.152 47.504 9.152C49.104 9.152 50.5227 9.42933 51.76 9.984C53.0187 10.5173 54 11.328 54.704 12.416C55.4293 13.4827 55.792 14.8267 55.792 16.448V17.408H51.632V16.448C51.632 15.5947 51.4613 14.912 51.12 14.4C50.8 13.8667 50.3307 13.4827 49.712 13.248C49.0933 12.992 48.3573 12.864 47.504 12.864C46.224 12.864 45.2747 13.1093 44.656 13.6C44.0587 14.0693 43.76 14.72 43.76 15.552C43.76 16.1067 43.8987 16.576 44.176 16.96C44.4747 17.344 44.912 17.664 45.488 17.92C46.064 18.176 46.8 18.4 47.696 18.592L48.432 18.752C50.032 19.0933 51.4187 19.5307 52.592 20.064C53.7867 20.5973 54.7147 21.3013 55.376 22.176C56.0373 23.0507 56.368 24.1707 56.368 25.536C56.368 26.9013 56.016 28.1067 55.312 29.152C54.6293 30.176 53.648 30.9867 52.368 31.584C51.1093 32.16 49.616 32.448 47.888 32.448ZM65.5022 32.448C63.9662 32.448 62.5689 32.128 61.3102 31.488C60.0729 30.848 59.0916 29.92 58.3662 28.704C57.6409 27.488 57.2782 26.016 57.2782 24.288V23.84C57.2782 22.112 57.6409 20.64 58.3662 19.424C59.0916 18.208 60.0729 17.28 61.3102 16.64C62.5689 16 63.9662 15.68 65.5022 15.68C67.0169 15.68 68.3183 15.9467 69.4062 16.48C70.4942 17.0133 71.3689 17.7493 72.0303 18.688C72.7129 19.6053 73.1609 20.6507 73.3743 21.824L69.4703 22.656C69.3849 22.016 69.1929 21.44 68.8942 20.928C68.5956 20.416 68.1689 20.0107 67.6143 19.712C67.0809 19.4133 66.4089 19.264 65.5983 19.264C64.7876 19.264 64.0516 19.4453 63.3903 19.808C62.7503 20.1493 62.2383 20.672 61.8542 21.376C61.4916 22.0587 61.3102 22.9013 61.3102 23.904V24.224C61.3102 25.2267 61.4916 26.08 61.8542 26.784C62.2383 27.4667 62.7503 27.9893 63.3903 28.352C64.0516 28.6933 64.7876 28.864 65.5983 28.864C66.8142 28.864 67.7316 28.5547 68.3503 27.936C68.9903 27.296 69.3956 26.464 69.5662 25.44L73.4703 26.368C73.1929 27.4987 72.7129 28.5333 72.0303 29.472C71.3689 30.3893 70.4942 31.1147 69.4062 31.648C68.3183 32.1813 67.0169 32.448 65.5022 32.448ZM81.2442 32.256C80.0069 32.256 78.9189 31.9787 77.9802 31.424C77.0629 30.848 76.3482 30.0587 75.8362 29.056C75.3242 28.0533 75.0682 26.9013 75.0682 25.6V16.128H79.1002V25.28C79.1002 26.4747 79.3882 27.3707 79.9642 27.968C80.5616 28.5653 81.4042 28.864 82.4922 28.864C83.7296 28.864 84.6896 28.4587 85.3722 27.648C86.0549 26.816 86.3962 25.664 86.3962 24.192V16.128H90.4282V32H86.4602V29.92H85.8842C85.6282 30.4533 85.1482 30.976 84.4443 31.488C83.7402 32 82.6736 32.256 81.2442 32.256ZM99.363 32.256C98.1257 32.256 97.0377 31.9787 96.099 31.424C95.1817 30.848 94.467 30.0587 93.955 29.056C93.443 28.0533 93.187 26.9013 93.187 25.6V16.128H97.219V25.28C97.219 26.4747 97.507 27.3707 98.083 27.968C98.6803 28.5653 99.523 28.864 100.611 28.864C101.848 28.864 102.808 28.4587 103.491 27.648C104.174 26.816 104.515 25.664 104.515 24.192V16.128H108.547V32H104.579V29.92H104.003C103.747 30.4533 103.267 30.976 102.563 31.488C101.859 32 100.792 32.256 99.363 32.256ZM111.434 38.4V16.128H115.402V18.048H115.978C116.34 17.4293 116.906 16.8853 117.674 16.416C118.442 15.9253 119.54 15.68 120.97 15.68C122.25 15.68 123.434 16 124.522 16.64C125.61 17.2587 126.484 18.176 127.146 19.392C127.807 20.608 128.138 22.08 128.138 23.808V24.32C128.138 26.048 127.807 27.52 127.146 28.736C126.484 29.952 125.61 30.88 124.522 31.52C123.434 32.1387 122.25 32.448 120.97 32.448C120.01 32.448 119.199 32.3307 118.538 32.096C117.898 31.8827 117.375 31.6053 116.97 31.264C116.586 30.9013 116.276 30.5387 116.042 30.176H115.466V38.4H111.434ZM119.754 28.928C121.012 28.928 122.047 28.5333 122.858 27.744C123.69 26.9333 124.106 25.76 124.106 24.224V23.904C124.106 22.368 123.69 21.2053 122.858 20.416C122.026 19.6053 120.991 19.2 119.754 19.2C118.516 19.2 117.482 19.6053 116.65 20.416C115.818 21.2053 115.402 22.368 115.402 23.904V24.224C115.402 25.76 115.818 26.9333 116.65 27.744C117.482 28.5333 118.516 28.928 119.754 28.928Z" fill="white"/>
<path d="M5.92285 20.1538C5.92285 14.546 10.4689 10 16.0767 10H30.0987C31.7009 10 32.9998 11.2989 32.9998 12.9011C32.9998 16.9067 29.7526 20.1538 25.747 20.1538H5.92285Z" fill="url(#paint0_linear_4179_1265)"/>
<path d="M27.0771 21.8462C27.0771 27.454 22.5311 32 16.9233 32L2.90133 32C1.29909 32 0.000225181 30.7011 0.000225321 29.0989C0.000225671 25.0933 3.24739 21.8462 7.25297 21.8462L27.0771 21.8462Z" fill="url(#paint1_linear_4179_1265)"/>
<defs>
<linearGradient id="paint0_linear_4179_1265" x1="21.5" y1="20" x2="33" y2="31.5" gradientUnits="userSpaceOnUse">
<stop stop-color="#3CD199"/>
<stop offset="1" stop-color="#3ACDCD"/>
</linearGradient>
<linearGradient id="paint1_linear_4179_1265" x1="14" y1="34.5" x2="27" y2="9.5" gradientUnits="userSpaceOnUse">
<stop stop-color="#3ACDCD"/>
<stop offset="1" stop-color="#3DD199"/>
</linearGradient>
</defs>
</svg>
