<svg width="128" height="41" viewBox="0 0 128 41" fill="none" xmlns="http://www.w3.org/2000/svg">
<path d="M45.888 32.448C44.16 32.448 42.6347 32.1387 41.312 31.52C39.9893 30.9013 38.9547 30.016 38.208 28.864C37.4613 27.712 37.088 26.3253 37.088 24.704V23.808H41.248V24.704C41.248 26.048 41.664 27.0613 42.496 27.744C43.328 28.4053 44.4587 28.736 45.888 28.736C47.3387 28.736 48.416 28.448 49.12 27.872C49.8453 27.296 50.208 26.56 50.208 25.664C50.208 25.0453 50.0267 24.544 49.664 24.16C49.3227 23.776 48.8107 23.4667 48.128 23.232C47.4667 22.976 46.656 22.7413 45.696 22.528L44.96 22.368C43.424 22.0267 42.1013 21.6 40.992 21.088C39.904 20.5547 39.0613 19.8613 38.464 19.008C37.888 18.1547 37.6 17.0453 37.6 15.68C37.6 14.3147 37.92 13.152 38.56 12.192C39.2213 11.2107 40.1387 10.464 41.312 9.952C42.5067 9.41867 43.904 9.152 45.504 9.152C47.104 9.152 48.5227 9.42933 49.76 9.984C51.0187 10.5173 52 11.328 52.704 12.416C53.4293 13.4827 53.792 14.8267 53.792 16.448V17.408H49.632V16.448C49.632 15.5947 49.4613 14.912 49.12 14.4C48.8 13.8667 48.3307 13.4827 47.712 13.248C47.0933 12.992 46.3573 12.864 45.504 12.864C44.224 12.864 43.2747 13.1093 42.656 13.6C42.0587 14.0693 41.76 14.72 41.76 15.552C41.76 16.1067 41.8987 16.576 42.176 16.96C42.4747 17.344 42.912 17.664 43.488 17.92C44.064 18.176 44.8 18.4 45.696 18.592L46.432 18.752C48.032 19.0933 49.4187 19.5307 50.592 20.064C51.7867 20.5973 52.7147 21.3013 53.376 22.176C54.0373 23.0507 54.368 24.1707 54.368 25.536C54.368 26.9013 54.016 28.1067 53.312 29.152C52.6293 30.176 51.648 30.9867 50.368 31.584C49.1093 32.16 47.616 32.448 45.888 32.448ZM63.5022 32.448C61.9662 32.448 60.5689 32.128 59.3102 31.488C58.0729 30.848 57.0916 29.92 56.3662 28.704C55.6409 27.488 55.2782 26.016 55.2782 24.288V23.84C55.2782 22.112 55.6409 20.64 56.3662 19.424C57.0916 18.208 58.0729 17.28 59.3102 16.64C60.5689 16 61.9662 15.68 63.5022 15.68C65.0169 15.68 66.3183 15.9467 67.4062 16.48C68.4942 17.0133 69.3689 17.7493 70.0303 18.688C70.7129 19.6053 71.1609 20.6507 71.3743 21.824L67.4703 22.656C67.3849 22.016 67.1929 21.44 66.8942 20.928C66.5956 20.416 66.1689 20.0107 65.6143 19.712C65.0809 19.4133 64.4089 19.264 63.5983 19.264C62.7876 19.264 62.0516 19.4453 61.3903 19.808C60.7503 20.1493 60.2383 20.672 59.8542 21.376C59.4916 22.0587 59.3102 22.9013 59.3102 23.904V24.224C59.3102 25.2267 59.4916 26.08 59.8542 26.784C60.2383 27.4667 60.7503 27.9893 61.3903 28.352C62.0516 28.6933 62.7876 28.864 63.5983 28.864C64.8142 28.864 65.7316 28.5547 66.3503 27.936C66.9903 27.296 67.3956 26.464 67.5662 25.44L71.4703 26.368C71.1929 27.4987 70.7129 28.5333 70.0303 29.472C69.3689 30.3893 68.4942 31.1147 67.4062 31.648C66.3183 32.1813 65.0169 32.448 63.5022 32.448ZM79.2442 32.256C78.0069 32.256 76.9189 31.9787 75.9802 31.424C75.0629 30.848 74.3482 30.0587 73.8362 29.056C73.3242 28.0533 73.0682 26.9013 73.0682 25.6V16.128H77.1002V25.28C77.1002 26.4747 77.3882 27.3707 77.9642 27.968C78.5616 28.5653 79.4042 28.864 80.4922 28.864C81.7296 28.864 82.6896 28.4587 83.3722 27.648C84.0549 26.816 84.3962 25.664 84.3962 24.192V16.128H88.4282V32H84.4602V29.92H83.8842C83.6282 30.4533 83.1482 30.976 82.4443 31.488C81.7402 32 80.6736 32.256 79.2442 32.256ZM97.363 32.256C96.1257 32.256 95.0377 31.9787 94.099 31.424C93.1817 30.848 92.467 30.0587 91.955 29.056C91.443 28.0533 91.187 26.9013 91.187 25.6V16.128H95.219V25.28C95.219 26.4747 95.507 27.3707 96.083 27.968C96.6803 28.5653 97.523 28.864 98.611 28.864C99.8483 28.864 100.808 28.4587 101.491 27.648C102.174 26.816 102.515 25.664 102.515 24.192V16.128H106.547V32H102.579V29.92H102.003C101.747 30.4533 101.267 30.976 100.563 31.488C99.859 32 98.7923 32.256 97.363 32.256ZM109.434 38.4V16.128H113.402V18.048H113.978C114.34 17.4293 114.906 16.8853 115.674 16.416C116.442 15.9253 117.54 15.68 118.97 15.68C120.25 15.68 121.434 16 122.522 16.64C123.61 17.2587 124.484 18.176 125.146 19.392C125.807 20.608 126.138 22.08 126.138 23.808V24.32C126.138 26.048 125.807 27.52 125.146 28.736C124.484 29.952 123.61 30.88 122.522 31.52C121.434 32.1387 120.25 32.448 118.97 32.448C118.01 32.448 117.199 32.3307 116.538 32.096C115.898 31.8827 115.375 31.6053 114.97 31.264C114.586 30.9013 114.276 30.5387 114.042 30.176H113.466V38.4H109.434ZM117.754 28.928C119.012 28.928 120.047 28.5333 120.858 27.744C121.69 26.9333 122.106 25.76 122.106 24.224V23.904C122.106 22.368 121.69 21.2053 120.858 20.416C120.026 19.6053 118.991 19.2 117.754 19.2C116.516 19.2 115.482 19.6053 114.65 20.416C113.818 21.2053 113.402 22.368 113.402 23.904V24.224C113.402 25.76 113.818 26.9333 114.65 27.744C115.482 28.5333 116.516 28.928 117.754 28.928Z" fill="white"/>
<path d="M5.92285 20.1538C5.92285 14.546 10.4689 10 16.0767 10H30.0987C31.7009 10 32.9998 11.2989 32.9998 12.9011C32.9998 16.9067 29.7526 20.1538 25.747 20.1538H5.92285Z" fill="#3CD199"/>
<path d="M27.0771 21.8462C27.0771 27.454 22.5311 32 16.9233 32L2.90133 32C1.29909 32 0.000225181 30.7011 0.000225321 29.0989C0.000225671 25.0933 3.24739 21.8462 7.25297 21.8462L27.0771 21.8462Z" fill="#7EFFA0"/>
</svg>
